<?xml version="1.0" encoding="UTF-8" standalone="no"?>
<!-- Created with Inkscape (http://www.inkscape.org/) -->

<svg
   xmlns:dc="http://purl.org/dc/elements/1.1/"
   xmlns:cc="http://creativecommons.org/ns#"
   xmlns:rdf="http://www.w3.org/1999/02/22-rdf-syntax-ns#"
   xmlns:svg="http://www.w3.org/2000/svg"
   xmlns="http://www.w3.org/2000/svg"
   xmlns:sodipodi="http://sodipodi.sourceforge.net/DTD/sodipodi-0.dtd"
   xmlns:inkscape="http://www.inkscape.org/namespaces/inkscape"
   width="1273.1213"
   height="234.7562"
   viewBox="0 0 1273.1213 234.7562"
   id="svg2"
   version="1.1"
   inkscape:version="0.92.3 (2405546, 2018-03-11)"
   sodipodi:docname="Wensley and Lawz Logo Horizontal Coloured.portable.ink.svg">
  <defs
     id="defs4" />
  <sodipodi:namedview
     id="base"
     pagecolor="#ffffff"
     bordercolor="#666666"
     borderopacity="1.0"
     inkscape:pageopacity="0.0"
     inkscape:pageshadow="2"
     inkscape:zoom="0.7071068"
     inkscape:cx="375.85852"
     inkscape:cy="273.98316"
     inkscape:document-units="px"
     inkscape:current-layer="text3340"
     showgrid="false"
     inkscape:window-width="1920"
     inkscape:window-height="1080"
     inkscape:window-x="0"
     inkscape:window-y="0"
     inkscape:window-maximized="0"
     units="px"
     fit-margin-top="0"
     fit-margin-left="0"
     fit-margin-right="0"
     fit-margin-bottom="0" />
  <metadata
     id="metadata7">
    <rdf:RDF>
      <cc:Work
         rdf:about="">
        <dc:format>image/svg+xml</dc:format>
        <dc:type
           rdf:resource="http://purl.org/dc/dcmitype/StillImage" />
        <dc:title></dc:title>
      </cc:Work>
    </rdf:RDF>
  </metadata>
  <g
     inkscape:label="Layer 1"
     inkscape:groupmode="layer"
     id="layer1"
     transform="translate(2.6049805e-7,-817.60597)">
    <g
       id="g4164"
       transform="translate(-39.736002,692.11701)">
      <g
         aria-label="Wensley"
         style="font-style:normal;font-variant:normal;font-weight:bold;font-stretch:normal;line-height:0%;font-family:Palladio;-inkscape-font-specification:'Palladio Bold';letter-spacing:0px;word-spacing:0px;fill:#00257a;fill-opacity:0.94117647;stroke:none;stroke-width:1px;stroke-linecap:butt;stroke-linejoin:miter;stroke-opacity:1"
         id="text3340">
        <path
           d="m 87.976002,312.54516 h -12.24 q -0.18,-1.08 -0.36,-2.52 -1.26,-5.04 -3.96,-17.46 l -15.84,-71.1 q -1.62,-7.74 -3.42,-15.48 -0.72,-3.24 -1.62,-4.32 -1.8,-2.34 -10.8,-3.06 v -7.56 l 33.48,0.9 q 2.88,0 16.92,-0.36 v 7.02 q -12.06,0 -12.06,5.04 0,1.62 1.8,10.08 0.54,2.7 1.26,6.12 l 11.16,56.34 25.019998,-53.64 q 6.12,-12.96 14.22,-31.86 h 7.56 q 0.18,0.36 8.82,22.68 l 26.1,67.14 15.12,-58.32 q 3.6,-13.86 3.6,-18.18 0,-3.42 -2.34,-4.14 -2.16,-0.9 -11.88,-1.26 v -7.38 q 10.62,0.54 19.44,0.54 5.58,0 18.54,-0.36 v 7.2 q -5.94,0.36 -7.74,1.44 -1.8,1.08 -3.6,5.04 -1.26,2.88 -6.84,23.22 l -13.68,50.22 -7.56,29.88 q -0.18,1.08 -1.08,4.14 h -16.02 q -2.52,-7.2 -17.1,-44.82 l -16.38,-42.12 -21.96,48.24 q -1.62,3.42 -5.759998,13.14 -3.96,9.72 -10.8,25.56 z"
           style="font-size:180px;line-height:1.25"
           id="path15" />
        <path
           d="m 282.24381,295.08516 2.52,2.7 -3.96,8.28 q -12.24,8.28 -27.18,8.28 -17.1,0 -27.9,-10.26 -11.34,-10.8 -11.34,-31.86 0,-19.26 6.66,-27.9 2.88,-3.78 14.76,-10.26 12.06,-6.48 20.88,-6.48 14.58,0 23.04,10.08 7.2,8.64 7.2,23.58 0,0.9 -0.36,6.66 -16.38,3.24 -25.2,3.24 h -23.94 q 0.18,13.14 7.38,21.42 7.38,8.1 18.54,8.1 10.98,0 18.9,-5.58 z m -45.72,-32.76 q 4.5,0.18 12.24,0.18 9.9,0 15.3,-0.36 0,-13.32 -3.06,-19.08 -3.06,-5.76 -10.08,-5.76 -7.02,0 -10.44,5.94 -3.24,5.76 -3.96,19.08 z"
           style="font-size:180px;line-height:1.25"
           id="path17" />
        <path
           d="m 294.49788,241.98516 v -6.66 q 17.82,-1.98 30.6,-7.2 l 2.34,0.9 q 0.36,5.22 0.54,14.22 l 11.7,-10.62 q 4.68,-4.32 15.3,-4.32 12.6,0 19.08,6.84 5.76,6.12 5.76,23.22 0,5.76 -0.18,12.6 -0.36,13.5 -0.36,18 0,10.62 1.26,12.78 1.44,1.98 8.46,2.7 l 1.98,0.18 v 7.02 q -10.98,-0.54 -17.64,-0.54 -4.86,0 -16.56,0.54 l -0.54,-1.08 q 1.62,-15.12 1.62,-34.02 0,-19.26 -2.52,-25.56 -2.88,-7.2 -11.88,-7.2 -4.86,0 -9.72,3.24 -4.68,3.06 -5.76,7.56 -0.18,1.44 -0.18,3.96 l 0.36,34.74 q 0,8.1 1.62,9.54 1.62,1.44 10.62,1.8 v 6.84 q -7.02,-0.18 -19.62,-0.18 -17.1,0 -26.28,0.36 v -7.02 q 6.3,-0.36 7.74,-0.36 1.44,-0.18 2.52,-0.9 1.08,-0.9 1.44,-8.28 0.36,-9.18 0.36,-21.78 0,-28.08 -1.62,-29.88 -1.08,-1.26 -10.44,-1.44 z"
           style="font-size:180px;line-height:1.25"
           id="path19" />
        <path
           d="m 401.851,284.10516 h 7.2 l 0.18,3.06 q 0.54,9.72 4.32,13.14 5.58,5.04 14.76,5.04 7.2,0 11.34,-3.24 4.14,-3.42 4.14,-9.18 0,-6.66 -5.76,-9.72 -3.24,-1.8 -13.86,-4.68 -10.62,-3.06 -15.3,-6.84 -7.56,-6.12 -7.56,-17.1 0,-12.42 9.18,-19.62 9.18,-7.38 24.66,-7.38 12.06,0 22.86,4.86 -1.44,7.38 -1.98,21.78 h -6.3 l -0.18,-3.6 q -0.36,-7.02 -3.6,-9.9 -4.68,-4.32 -12.6,-4.32 -6.3,0 -10.08,2.88 -3.6,2.88 -3.6,7.74 0,5.04 3.6,7.92 3.78,2.7 14.04,5.04 12.06,2.88 17.1,5.58 9.72,5.22 9.72,18.54 0,13.14 -10.44,21.78 -10.26,8.64 -26.28,8.64 -11.88,0 -26.82,-5.94 1.08,-5.76 1.26,-24.48 z"
           style="font-size:180px;line-height:1.25"
           id="path21" />
        <path
           d="m 471.29163,196.62516 v -6.66 q 16.92,-1.98 33.12,-6.3 l 2.52,1.26 q -0.54,34.56 -0.54,66.6 0,44.82 0.54,48.06 0.54,3.24 2.52,3.96 1.98,0.72 9.36,0.9 v 7.2 l -24.3,-0.54 q -9.9,0 -23.22,0.54 v -7.02 q 0.9,-0.18 2.88,-0.18 7.38,-0.18 8.64,-1.8 1.26,-1.8 1.62,-11.34 0.36,-12.42 0.36,-42.84 0,-26.64 -0.54,-45.36 -0.18,-4.14 -1.62,-5.04 -1.44,-1.08 -8.28,-1.26 -0.72,0 -3.06,-0.18 z"
           style="font-size:180px;line-height:1.25"
           id="path23" />
        <path
           d="m 591.26725,295.08516 2.52,2.7 -3.96,8.28 q -12.24,8.28 -27.18,8.28 -17.1,0 -27.9,-10.26 -11.34,-10.8 -11.34,-31.86 0,-19.26 6.66,-27.9 2.88,-3.78 14.76,-10.26 12.06,-6.48 20.88,-6.48 14.58,0 23.04,10.08 7.2,8.64 7.2,23.58 0,0.9 -0.36,6.66 -16.38,3.24 -25.2,3.24 h -23.94 q 0.18,13.14 7.38,21.42 7.38,8.1 18.54,8.1 10.98,0 18.9,-5.58 z m -45.72,-32.76 q 4.5,0.18 12.24,0.18 9.9,0 15.3,-0.36 0,-13.32 -3.06,-19.08 -3.06,-5.76 -10.08,-5.76 -7.02,0 -10.44,5.94 -3.24,5.76 -3.96,19.08 z"
           style="font-size:180px;line-height:1.25"
           id="path25" />
        <path
           d="m 602.58756,338.64516 2.16,-0.72 q 8.46,5.76 15.3,5.76 6.3,0 10.26,-5.04 4.14,-5.04 10.8,-21.06 l -25.74,-65.34 q -3.06,-7.92 -4.14,-9.9 -1.26,-2.88 -2.52,-3.78 -1.8,-1.26 -8.82,-1.8 v -7.2 q 13.86,0.72 26.1,0.72 9.72,0 20.52,-0.36 v 6.84 q -7.74,0.54 -9.36,1.08 -1.62,0.54 -1.62,2.7 0,1.62 5.58,17.28 l 10.98,30.78 h 0.72 l 12.42,-31.68 q 5.4,-13.86 5.4,-16.38 0,-3.24 -8.64,-3.6 -0.54,0 -1.98,-0.18 v -6.84 q 9,0.54 16.38,0.54 4.14,0 16.02,-0.36 v 6.66 q -4.5,0.54 -6.84,1.44 -2.16,1.44 -5.76,9.54 -2.34,5.94 -4.68,11.7 l -27.72,65.16 q -8.1,19.26 -15.12,26.64 -8.46,9 -22.86,9 -5.76,0 -10.44,-1.8 2.16,-9.18 3.6,-19.8 z"
           style="font-size:180px;line-height:1.25"
           id="path27" />
      </g>
      <g
         aria-label="Lawz"
         style="font-style:normal;font-variant:normal;font-weight:bold;font-stretch:normal;line-height:0%;font-family:Palladio;-inkscape-font-specification:'Palladio Bold';letter-spacing:0px;word-spacing:0px;fill:#00257a;fill-opacity:0.94117647;stroke:none;stroke-width:1px;stroke-linecap:butt;stroke-linejoin:miter;stroke-opacity:1"
         id="text4156">
        <path
           d="m 1002.827,282.12516 h 7.56 q -2.7,18.9 -3.24,30.6 -9.72,1.08 -21.06,1.08 -7.2,0 -15.12,-0.18 -15.84,-0.36 -24.12,-0.36 -10.44,0 -24.66,0.9 v -4.5 q 1.44,-0.54 1.98,-1.08 4.5,-2.16 5.58,-3.6 1.08,-1.44 1.26,-5.22 1.08,-39.06 1.08,-55.08 0,-39.78 -2.16,-42.12 -1.62,-1.8 -9.36,-2.34 -1.62,-0.18 -3.96,-0.36 v -7.2 q 12.78,0.9 26.64,0.9 9.72,0 28.44,-0.72 v 7.2 l -3.24,0.18 q -6.48,0.36 -8.1,1.08 -3.24,1.44 -3.24,6.48 l -0.9,95.04 q 17.28,0.36 16.56,0.36 22.5,0 25.38,-3.06 1.44,-1.62 4.68,-18 z"
           style="font-size:180px;line-height:1.25"
           id="path30" />
        <path
           d="m 1034.2539,254.58516 -6.3,-1.44 0.54,-10.98 q 10.26,-7.2 14.04,-9 7.02,-3.42 15.66,-3.42 15.84,0 22.68,8.46 5.04,6.12 5.04,21.6 v 2.34 l -0.9,29.7 q -0.36,10.08 0.9,12.06 1.26,1.98 7.74,2.52 l 2.16,0.18 v 6.84 l -15.12,-0.18 q -6.66,0 -16.74,0.54 l -0.9,-1.08 0.9,-11.88 -2.52,2.16 -7.02,5.76 q -1.98,1.62 -5.22,4.5 -2.16,1.98 -9.9,1.98 -19.8,0 -19.8,-21.42 0,-13.14 8.46,-18.72 8.64,-5.76 36,-10.98 0.18,-0.72 0.18,-0.9 0.36,-7.92 -2.7,-12.78 -4.68,-7.38 -14.4,-7.38 -3.6,0 -7.38,1.62 z m 29.88,37.62 v -21.42 q -12.6,2.88 -17.64,6.84 -5.04,3.96 -5.04,11.34 0,5.04 2.7,8.28 2.7,3.06 6.84,3.06 6.3,0 13.14,-8.1 z"
           style="font-size:180px;line-height:1.25"
           id="path32" />
        <path
           d="m 1142.2004,313.98516 h -14.22 q -4.14,-16.92 -6.3,-24.3 l -10.44,-37.26 q -1.26,-4.14 -2.16,-6.66 -1.26,-4.32 -3.06,-5.22 -1.62,-0.9 -9.54,-1.26 v -7.2 q 13.5,0.54 21.6,0.54 6.48,0 25.38,-0.54 v 7.02 q -7.56,0.18 -9.54,0.72 -1.8,0.36 -1.8,2.34 0,1.8 1.44,7.74 l 9,36.72 14.58,-33.12 q 7.74,-17.46 9.54,-23.76 h 9.18 q 6.12,16.2 10.8,26.82 l 13.14,30.06 9.72,-30.24 q 3.24,-10.08 3.24,-13.32 0,-3.6 -9,-3.78 -0.72,0 -2.88,-0.18 v -7.02 q 10.08,0.36 19.8,0.36 6.48,0 15.12,-0.54 v 7.2 q -7.02,0.18 -8.82,1.8 -1.62,1.44 -4.32,8.82 -15.12,42.48 -21.06,64.26 h -13.68 l -22.86,-54.36 z"
           style="font-size:180px;line-height:1.25"
           id="path34" />
        <path
           d="m 1305.1173,286.08516 h 7.74 q -1.8,14.58 -1.8,22.14 v 5.58 q -5.04,0.54 -8.46,0.54 1.08,0 -27.9,-0.54 l -22.68,-0.36 q -7.92,0 -17.64,0.54 v -6.12 q 9.18,-10.8 25.2,-33.12 l 23.4,-32.94 q -2.7,-0.18 -5.22,-0.18 -25.38,0 -26.82,1.62 -0.36,0.36 -2.34,13.32 h -7.38 q 0.72,-11.7 0.72,-18.36 0,-3.42 -0.18,-6.66 18.72,1.08 45.9,1.08 10.08,0 23.58,-0.72 v 6.3 q -5.4,7.38 -23.22,31.68 -13.32,18.18 -24.12,34.2 l 17.64,0.18 q 18,0 19.8,-1.62 1.98,-1.62 3.78,-16.56 z"
           style="font-size:180px;line-height:1.25"
           id="path36" />
      </g>
      <path
         style="font-style:normal;font-variant:normal;font-weight:normal;font-stretch:normal;line-height:0%;font-family:Palladio;-inkscape-font-specification:Palladio;letter-spacing:0px;word-spacing:0px;fill:#00237b;fill-opacity:0.35686275;stroke:none;stroke-width:1px;stroke-linecap:butt;stroke-linejoin:miter;stroke-opacity:1"
         d="m 789.50391,125.52096 c -19.77903,0.63705 -36.96423,15.29998 -45.18946,32.60156 -7.01404,15.57793 -2.10198,33.23515 3.89649,48.28906 -14.20493,9.50365 -29.49691,20.05877 -35.48047,36.88867 -8.0244,19.98531 -2.00817,44.59819 14.87109,58.17188 17.75855,15.98275 45.03171,17.11148 65.85883,6.69821 7.45226,-3.37721 14.46697,-7.65641 21.13531,-12.3818 15.45151,12.2779 35.428,23.13985 55.76953,18.26367 7.36983,-6.31579 14.71121,-12.56072 22.48047,-18.39844 -1.75726,-4.1058 -1.50688,-12.91045 -7.21738,-7.66159 -11.45187,7.05944 -25.50031,2.85719 -36.99355,-1.90481 -5.64962,-2.51109 -11.00013,-5.66672 -16.03907,-9.24219 14.11886,-13.60983 23.33693,-33.79396 19.33789,-53.58008 11.53085,0.36827 23.14417,1.05363 34.5918,3.22265 1.18804,-7.89521 2.46537,-15.7761 3.66211,-23.66992 -25.59095,1.86105 -51.3227,3.51705 -76.86719,1.16602 -2.82429,4.59742 -5.55686,9.25215 -8.47851,13.78906 0.55116,6.1236 6.77816,3.55383 11.04101,4.14062 6.06575,-0.19489 14.11458,0.50931 15.66797,7.73633 3.72745,13.36529 -0.31045,28.28616 -8.85547,38.85938 -19.9678,-18.18757 -36.27434,-40.01375 -48.91015,-63.875 13.3322,-9.33406 29.30575,-16.17471 39.21679,-29.58594 9.56901,-11.888 9.35618,-30.94834 -2.30859,-41.38086 -5.51228,-5.6195 -13.35267,-8.51957 -21.18945,-8.14648 z m -8.33203,16.15429 c 11.34214,0.41057 16.96554,13.68049 13.08789,23.37305 -4.07945,12.717 -14.92286,21.54236 -25.51172,28.77539 -4.06007,-13.87139 -9.44017,-29.89532 -2.54102,-43.71289 2.92724,-5.37924 8.76813,-8.94442 14.96485,-8.43555 z m -26.97266,77.57422 c 13.52922,24.55377 29.72561,47.93306 50.17383,67.25391 -13.67189,9.01294 -32.23266,13.31284 -47.12696,4.45508 -21.56361,-11.77938 -28.95095,-43.43733 -13.0332,-62.67578 2.79835,-3.61056 6.07373,-6.83483 9.61523,-9.7129 z"
         id="text4160"
         inkscape:connector-curvature="0" />
      <g
         style="font-style:normal;font-weight:normal;font-size:40px;line-height:1.25;font-family:sans-serif;letter-spacing:0px;word-spacing:0px;fill:#000000;fill-opacity:1;stroke:none"
         id="text18" />
    </g>
  </g>
</svg>
